@startuml

class Shape {
  + calculate_area(): double
}

class Rectangle {
  - width: double
  - height: double
  + __init__(width: double, height: double)
  + calculate_area(): double
}

class Square {
  - side: double
  + __init__(side: double)
  + calculate_area(): double
}

Shape <|-- Rectangle
Shape <|-- Square

Shape "*" --* "1" Rectangle: has
Shape "*" --* "1" Square: has

@enduml